<svg width="72" height="72" viewBox="0 0 72 72" fill="none" xmlns="http://www.w3.org/2000/svg">
<path fill-rule="evenodd" clip-rule="evenodd" d="M36.0001 67.5C35.4034 67.5 34.8311 67.2629 34.4091 66.841C33.9871 66.419 33.7501 65.8467 33.7501 65.25L33.7501 12.1815L19.5931 26.343C19.1706 26.7655 18.5976 27.0028 18.0001 27.0028C17.4026 27.0028 16.8296 26.7655 16.4071 26.343C15.9846 25.9205 15.7472 25.3475 15.7472 24.75C15.7472 24.1525 15.9846 23.5795 16.4071 23.157L34.4071 5.15701C34.6161 4.94747 34.8644 4.78123 35.1377 4.6678C35.4111 4.55437 35.7041 4.49599 36.0001 4.49599C36.296 4.49599 36.5891 4.55437 36.8624 4.6678C37.1358 4.78123 37.3841 4.94747 37.5931 5.15701L55.5931 23.157C56.0156 23.5795 56.2529 24.1525 56.2529 24.75C56.2529 25.3475 56.0156 25.9205 55.5931 26.343C55.1706 26.7655 54.5976 27.0028 54.0001 27.0028C53.4026 27.0028 52.8296 26.7655 52.4071 26.343L38.2501 12.1815L38.2501 65.25C38.2501 65.8467 38.013 66.419 37.5911 66.841C37.1691 67.2629 36.5968 67.5 36.0001 67.5Z" fill="white"/>
</svg>
