<svg width="98" height="98" viewBox="0 0 98 98" fill="none" xmlns="http://www.w3.org/2000/svg">
<path fill-rule="evenodd" clip-rule="evenodd" d="M49 6.125C49.8122 6.125 50.5911 6.44766 51.1655 7.02199C51.7398 7.59632 52.0625 8.37527 52.0625 9.1875V81.4196L71.3317 62.1442C71.9068 61.5692 72.6867 61.2461 73.5 61.2461C74.3132 61.2461 75.0932 61.5692 75.6682 62.1442C76.2433 62.7193 76.5663 63.4992 76.5663 64.3125C76.5663 65.1258 76.2433 65.9057 75.6682 66.4808L51.1682 90.9808C50.8837 91.266 50.5458 91.4922 50.1737 91.6466C49.8017 91.801 49.4028 91.8805 49 91.8805C48.5971 91.8805 48.1983 91.801 47.8262 91.6466C47.4541 91.4922 47.1162 91.266 46.8317 90.9808L22.3317 66.4808C21.7567 65.9057 21.4336 65.1258 21.4336 64.3125C21.4336 63.4992 21.7567 62.7193 22.3317 62.1442C22.9068 61.5692 23.6867 61.2461 24.5 61.2461C25.3132 61.2461 26.0932 61.5692 26.6682 62.1442L45.9375 81.4196V9.1875C45.9375 8.37527 46.2601 7.59632 46.8344 7.02199C47.4088 6.44766 48.1877 6.125 49 6.125V6.125Z" fill="black"/>
</svg>
