<svg width="768" height="123" viewBox="0 0 768 123" fill="current" xmlns="http://www.w3.org/2000/svg">
<path d="M420.134 61.5001C420.134 95.2747 397.152 122.5 368.976 122.5C340.8 122.5 317.817 95.2747 317.817 61.5001C317.817 27.7254 340.8 0.5 368.976 0.5C397.152 0.5 420.134 27.7254 420.134 61.5001Z" stroke="current" stroke-opacity="0.8"/>
<path d="M452.701 61.5001C452.701 95.2747 429.719 122.5 401.543 122.5C373.367 122.5 350.385 95.2747 350.385 61.5001C350.385 27.7254 373.367 0.5 401.543 0.5C429.719 0.5 452.701 27.7254 452.701 61.5001Z" stroke="current" stroke-opacity="0.8"/>
<path d="M487.515 61.5001C487.515 95.2747 464.532 122.5 436.356 122.5C408.181 122.5 385.198 95.2747 385.198 61.5001C385.198 27.7254 408.181 0.5 436.356 0.5C464.532 0.5 487.515 27.7254 487.515 61.5001Z" stroke="current" stroke-opacity="0.8"/>
<path d="M530.189 61.5001C530.189 95.2747 507.207 122.5 479.031 122.5C450.855 122.5 427.872 95.2747 427.872 61.5001C427.872 27.7254 450.855 0.5 479.031 0.5C507.207 0.5 530.189 27.7254 530.189 61.5001Z" stroke="current" stroke-opacity="0.8"/>
<path d="M556.019 61.5001C556.019 95.2747 533.036 122.5 504.86 122.5C476.684 122.5 453.702 95.2747 453.702 61.5001C453.702 27.7254 476.684 0.5 504.86 0.5C533.036 0.5 556.019 27.7254 556.019 61.5001Z" stroke="current" stroke-opacity="0.8"/>
<path d="M590.831 61.5001C590.831 95.2747 567.849 122.5 539.673 122.5C511.497 122.5 488.515 95.2747 488.515 61.5001C488.515 27.7254 511.497 0.5 539.673 0.5C567.849 0.5 590.831 27.7254 590.831 61.5001Z" stroke="current" stroke-opacity="0.8"/>
<path d="M633.506 61.5001C633.506 95.2747 610.524 122.5 582.348 122.5C554.172 122.5 531.189 95.2747 531.189 61.5001C531.189 27.7254 554.172 0.5 582.348 0.5C610.524 0.5 633.506 27.7254 633.506 61.5001Z" stroke="current" stroke-opacity="0.8"/>
<path d="M239.04 61.5001C239.04 95.2747 216.057 122.5 187.881 122.5C159.705 122.5 136.723 95.2747 136.723 61.5001C136.723 27.7254 159.705 0.5 187.881 0.5C216.057 0.5 239.04 27.7254 239.04 61.5001Z" stroke="current" stroke-opacity="0.8"/>
<path d="M273.853 61.5001C273.853 95.2747 250.87 122.5 222.694 122.5C194.518 122.5 171.536 95.2747 171.536 61.5001C171.536 27.7254 194.518 0.5 222.694 0.5C250.87 0.5 273.853 27.7254 273.853 61.5001Z" stroke="current" stroke-opacity="0.8"/>
<path d="M316.527 61.5001C316.527 95.2747 293.545 122.5 265.369 122.5C237.193 122.5 214.21 95.2747 214.21 61.5001C214.21 27.7254 237.193 0.5 265.369 0.5C293.545 0.5 316.527 27.7254 316.527 61.5001Z" stroke="current" stroke-opacity="0.8"/>
<path d="M342.356 61.5001C342.356 95.2747 319.374 122.5 291.198 122.5C263.022 122.5 240.04 95.2747 240.04 61.5001C240.04 27.7254 263.022 0.5 291.198 0.5C319.374 0.5 342.356 27.7254 342.356 61.5001Z" stroke="current" stroke-opacity="0.8"/>
<path d="M377.17 61.5001C377.17 95.2747 354.187 122.5 326.011 122.5C297.835 122.5 274.853 95.2747 274.853 61.5001C274.853 27.7254 297.835 0.5 326.011 0.5C354.187 0.5 377.17 27.7254 377.17 61.5001Z" stroke="current" stroke-opacity="0.8"/>
<path d="M102.817 61.5001C102.817 95.2747 79.8342 122.5 51.6584 122.5C23.4825 122.5 0.5 95.2747 0.5 61.5001C0.5 27.7254 23.4825 0.5 51.6584 0.5C79.8342 0.5 102.817 27.7254 102.817 61.5001Z" stroke="current" stroke-opacity="0.8"/>
<path d="M135.384 61.5001C135.384 95.2747 112.401 122.5 84.2255 122.5C56.0497 122.5 33.0671 95.2747 33.0671 61.5001C33.0671 27.7254 56.0497 0.5 84.2255 0.5C112.401 0.5 135.384 27.7254 135.384 61.5001Z" stroke="current" stroke-opacity="0.8"/>
<path d="M170.197 61.5001C170.197 95.2747 147.214 122.5 119.038 122.5C90.8627 122.5 67.8801 95.2747 67.8801 61.5001C67.8801 27.7254 90.8627 0.5 119.038 0.5C147.214 0.5 170.197 27.7254 170.197 61.5001Z" stroke="current" stroke-opacity="0.8"/>
<path d="M213.132 61.5C213.132 95.2435 188.686 122.5 158.644 122.5C128.602 122.5 104.156 95.2435 104.156 61.5C104.156 27.7565 128.602 0.5 158.644 0.5C188.686 0.5 213.132 27.7565 213.132 61.5Z" stroke="current" stroke-opacity="0.8"/>
<path d="M665.183 61.5002C665.183 27.7255 688.166 0.500124 716.342 0.500126C744.517 0.500128 767.5 27.7255 767.5 61.5002C767.5 95.2748 744.517 122.5 716.342 122.5C688.166 122.5 665.183 95.2748 665.183 61.5002Z" stroke="current" stroke-opacity="0.8"/>
<path d="M632.616 61.5002C632.616 27.7255 655.598 0.500124 683.774 0.500126C711.95 0.500128 734.933 27.7255 734.933 61.5002C734.933 95.2748 711.95 122.5 683.774 122.5C655.598 122.5 632.616 95.2748 632.616 61.5002Z" stroke="current" stroke-opacity="0.8"/>
<path d="M597.803 61.5002C597.803 27.7255 620.785 0.500124 648.961 0.500126C677.137 0.500128 700.12 27.7255 700.12 61.5002C700.12 95.2748 677.137 122.5 648.961 122.5C620.785 122.5 597.803 95.2748 597.803 61.5002Z" stroke="current" stroke-opacity="0.8"/>
<path d="M555.128 61.5002C555.128 27.7255 578.111 0.500124 606.286 0.500126C634.462 0.500128 657.445 27.7255 657.445 61.5002C657.445 95.2748 634.462 122.5 606.286 122.5C578.111 122.5 555.128 95.2748 555.128 61.5002Z" stroke="current" stroke-opacity="0.8"/>
</svg>
