<svg width="608" height="123" viewBox="0 0 608 123" fill="none" xmlns="http://www.w3.org/2000/svg">
<path d="M332.255 61.5001C332.255 78.3982 327.703 93.6739 320.369 104.71C313.033 115.751 302.954 122.5 291.889 122.5C280.824 122.5 270.745 115.751 263.409 104.71C256.076 93.6739 251.523 78.3982 251.523 61.5001C251.523 44.6019 256.076 29.3262 263.409 18.2897C270.745 7.24952 280.824 0.5 291.889 0.5C302.954 0.5 313.033 7.24952 320.369 18.2897C327.703 29.3262 332.255 44.6019 332.255 61.5001Z" stroke="black" stroke-opacity="0.8"/>
<path d="M358.018 61.5001C358.018 78.3982 353.466 93.6739 346.133 104.71C338.797 115.751 328.717 122.5 317.652 122.5C306.588 122.5 296.508 115.751 289.172 104.71C281.839 93.6739 277.287 78.3982 277.287 61.5001C277.287 44.6019 281.839 29.3262 289.172 18.2897C296.508 7.24952 306.588 0.5 317.652 0.5C328.717 0.5 338.797 7.24952 346.133 18.2897C353.466 29.3262 358.018 44.6019 358.018 61.5001Z" stroke="black" stroke-opacity="0.8"/>
<path d="M385.558 61.5001C385.558 78.3982 381.006 93.6739 373.673 104.71C366.337 115.751 356.257 122.5 345.193 122.5C334.128 122.5 324.048 115.751 316.712 104.71C309.379 93.6739 304.827 78.3982 304.827 61.5001C304.827 44.6019 309.379 29.3262 316.712 18.2897C324.048 7.24952 334.128 0.5 345.193 0.5C356.257 0.5 366.337 7.24952 373.673 18.2897C381.006 29.3262 385.558 44.6019 385.558 61.5001Z" stroke="black" stroke-opacity="0.8"/>
<path d="M419.317 61.5001C419.317 78.3982 414.765 93.6739 407.432 104.71C400.096 115.751 390.016 122.5 378.952 122.5C367.887 122.5 357.807 115.751 350.471 104.71C343.138 93.6739 338.586 78.3982 338.586 61.5001C338.586 44.6019 343.138 29.3262 350.471 18.2897C357.807 7.24952 367.887 0.5 378.952 0.5C390.016 0.5 400.096 7.24952 407.432 18.2897C414.765 29.3262 419.317 44.6019 419.317 61.5001Z" stroke="black" stroke-opacity="0.8"/>
<path d="M439.75 61.5001C439.75 78.3982 435.198 93.6739 427.865 104.71C420.529 115.751 410.449 122.5 399.384 122.5C388.32 122.5 378.24 115.751 370.904 104.71C363.571 93.6739 359.019 78.3982 359.019 61.5001C359.019 44.6019 363.571 29.3262 370.904 18.2897C378.24 7.24952 388.32 0.5 399.384 0.5C410.449 0.5 420.529 7.24952 427.865 18.2897C435.198 29.3262 439.75 44.6019 439.75 61.5001Z" stroke="black" stroke-opacity="0.8"/>
<path d="M467.29 61.5001C467.29 78.3982 462.738 93.6739 455.404 104.71C448.068 115.751 437.989 122.5 426.924 122.5C415.859 122.5 405.78 115.751 398.444 104.71C391.111 93.6739 386.558 78.3982 386.558 61.5001C386.558 44.6019 391.111 29.3262 398.444 18.2897C405.78 7.24952 415.859 0.5 426.924 0.5C437.989 0.5 448.068 7.24952 455.404 18.2897C462.738 29.3262 467.29 44.6019 467.29 61.5001Z" stroke="black" stroke-opacity="0.8"/>
<path d="M501.049 61.5001C501.049 78.3982 496.497 93.6739 489.163 104.71C481.827 115.751 471.748 122.5 460.683 122.5C449.618 122.5 439.539 115.751 432.203 104.71C424.87 93.6739 420.317 78.3982 420.317 61.5001C420.317 44.6019 424.87 29.3262 432.203 18.2897C439.539 7.24952 449.618 0.5 460.683 0.5C471.748 0.5 481.827 7.24952 489.163 18.2897C496.497 29.3262 501.049 44.6019 501.049 61.5001Z" stroke="black" stroke-opacity="0.8"/>
<path d="M188.995 61.5001C188.995 78.3982 184.443 93.6739 177.109 104.71C169.773 115.751 159.694 122.5 148.629 122.5C137.564 122.5 127.485 115.751 120.149 104.71C112.815 93.6739 108.263 78.3982 108.263 61.5001C108.263 44.6019 112.815 29.3262 120.149 18.2897C127.485 7.24952 137.564 0.5 148.629 0.5C159.694 0.5 169.773 7.24952 177.109 18.2897C184.443 29.3262 188.995 44.6019 188.995 61.5001Z" stroke="black" stroke-opacity="0.8"/>
<path d="M216.535 61.5001C216.535 78.3982 211.983 93.6739 204.649 104.71C197.313 115.751 187.234 122.5 176.169 122.5C165.104 122.5 155.025 115.751 147.689 104.71C140.355 93.6739 135.803 78.3982 135.803 61.5001C135.803 44.6019 140.355 29.3262 147.689 18.2897C155.025 7.24952 165.104 0.5 176.169 0.5C187.234 0.5 197.313 7.24952 204.649 18.2897C211.983 29.3262 216.535 44.6019 216.535 61.5001Z" stroke="black" stroke-opacity="0.8"/>
<path d="M250.294 61.5001C250.294 78.3982 245.742 93.6739 238.408 104.71C231.072 115.751 220.993 122.5 209.928 122.5C198.863 122.5 188.784 115.751 181.448 104.71C174.114 93.6739 169.562 78.3982 169.562 61.5001C169.562 44.6019 174.114 29.3262 181.448 18.2897C188.784 7.24952 198.863 0.5 209.928 0.5C220.993 0.5 231.072 7.24952 238.408 18.2897C245.742 29.3262 250.294 44.6019 250.294 61.5001Z" stroke="black" stroke-opacity="0.8"/>
<path d="M270.727 61.5001C270.727 78.3982 266.174 93.6739 258.841 104.71C251.505 115.751 241.426 122.5 230.361 122.5C219.296 122.5 209.217 115.751 201.881 104.71C194.547 93.6739 189.995 78.3982 189.995 61.5001C189.995 44.6019 194.547 29.3262 201.881 18.2897C209.217 7.24952 219.296 0.5 230.361 0.5C241.426 0.5 251.505 7.24952 258.841 18.2897C266.174 29.3262 270.727 44.6019 270.727 61.5001Z" stroke="black" stroke-opacity="0.8"/>
<path d="M298.267 61.5001C298.267 78.3982 293.714 93.6739 286.381 104.71C279.045 115.751 268.966 122.5 257.901 122.5C246.836 122.5 236.757 115.751 229.421 104.71C222.087 93.6739 217.535 78.3982 217.535 61.5001C217.535 44.6019 222.087 29.3262 229.421 18.2897C236.757 7.24952 246.836 0.5 257.901 0.5C268.966 0.5 279.045 7.24952 286.381 18.2897C293.714 29.3262 298.267 44.6019 298.267 61.5001Z" stroke="black" stroke-opacity="0.8"/>
<path d="M332.025 61.5001C332.025 78.3982 327.473 93.6739 320.14 104.71C312.804 115.751 302.724 122.5 291.66 122.5C280.595 122.5 270.515 115.751 263.179 104.71C255.846 93.6739 251.294 78.3982 251.294 61.5001C251.294 44.6019 255.846 29.3262 263.179 18.2897C270.515 7.24952 280.595 0.5 291.66 0.5C302.724 0.5 312.804 7.24952 320.14 18.2897C327.473 29.3262 332.025 44.6019 332.025 61.5001Z" stroke="black" stroke-opacity="0.8"/>
<path d="M81.2318 61.5001C81.2318 78.3982 76.6796 93.6739 69.346 104.71C62.01 115.751 51.9307 122.5 40.8659 122.5C29.801 122.5 19.7218 115.751 12.3858 104.71C5.05219 93.6739 0.5 78.3982 0.5 61.5001C0.5 44.6019 5.05219 29.3262 12.3858 18.2897C19.7218 7.24952 29.801 0.5 40.8659 0.5C51.9307 0.5 62.01 7.24952 69.346 18.2897C76.6796 29.3262 81.2318 44.6019 81.2318 61.5001Z" stroke="black" stroke-opacity="0.8"/>
<path d="M106.995 61.5001C106.995 78.3982 102.443 93.6739 95.1092 104.71C87.7731 115.751 77.6939 122.5 66.6291 122.5C55.5642 122.5 45.485 115.751 38.149 104.71C30.8154 93.6739 26.2632 78.3982 26.2632 61.5001C26.2632 44.6019 30.8154 29.3262 38.149 18.2897C45.485 7.24952 55.5642 0.5 66.6291 0.5C77.6939 0.5 87.7731 7.24952 95.1092 18.2897C102.443 29.3262 106.995 44.6019 106.995 61.5001Z" stroke="black" stroke-opacity="0.8"/>
<path d="M134.535 61.5001C134.535 78.3982 129.983 93.6739 122.649 104.71C115.313 115.751 105.234 122.5 94.1691 122.5C83.1043 122.5 73.025 115.751 65.689 104.71C58.3554 93.6739 53.8032 78.3982 53.8032 61.5001C53.8032 44.6019 58.3554 29.3262 65.689 18.2897C73.025 7.24952 83.1043 0.5 94.1691 0.5C105.234 0.5 115.313 7.24952 122.649 18.2897C129.983 29.3262 134.535 44.6019 134.535 61.5001Z" stroke="black" stroke-opacity="0.8"/>
<path d="M168.5 61.5C168.5 78.3916 163.656 93.663 155.851 104.698C148.045 115.735 137.307 122.5 125.5 122.5C113.693 122.5 102.955 115.735 95.1491 104.698C87.3436 93.663 82.5 78.3916 82.5 61.5C82.5 44.6084 87.3436 29.337 95.1491 18.3017C102.955 7.26505 113.693 0.5 125.5 0.5C137.307 0.5 148.045 7.26505 155.851 18.3017C163.656 29.337 168.5 44.6084 168.5 61.5Z" stroke="black" stroke-opacity="0.8"/>
<path d="M216.267 61.5001C216.267 78.3982 211.714 93.6739 204.381 104.71C197.045 115.751 186.966 122.5 175.901 122.5C164.836 122.5 154.757 115.751 147.421 104.71C140.087 93.6739 135.535 78.3982 135.535 61.5001C135.535 44.6019 140.087 29.3262 147.421 18.2897C154.757 7.24952 164.836 0.5 175.901 0.5C186.966 0.5 197.045 7.24952 204.381 18.2897C211.714 29.3262 216.267 44.6019 216.267 61.5001Z" stroke="black" stroke-opacity="0.8"/>
<path d="M250.026 61.5001C250.026 78.3982 245.474 93.6739 238.14 104.71C230.804 115.751 220.725 122.5 209.66 122.5C198.595 122.5 188.516 115.751 181.18 104.71C173.846 93.6739 169.294 78.3982 169.294 61.5001C169.294 44.6019 173.846 29.3262 181.18 18.2897C188.516 7.24952 198.595 0.5 209.66 0.5C220.725 0.5 230.804 7.24952 238.14 18.2897C245.474 29.3262 250.026 44.6019 250.026 61.5001Z" stroke="black" stroke-opacity="0.8"/>
<path d="M526.317 61.5002C526.317 44.602 530.87 29.3263 538.203 18.2898C545.539 7.24964 555.618 0.500125 566.683 0.500126C577.748 0.500127 587.827 7.24965 595.163 18.2898C602.497 29.3263 607.049 44.602 607.049 61.5002C607.049 78.3983 602.497 93.6741 595.163 104.711C587.827 115.751 577.748 122.5 566.683 122.5C555.618 122.5 545.539 115.751 538.203 104.711C530.87 93.6741 526.317 78.3983 526.317 61.5002Z" stroke="black" stroke-opacity="0.8"/>
<path d="M500.554 61.5002C500.554 44.602 505.106 29.3263 512.44 18.2898C519.776 7.24964 529.855 0.500125 540.92 0.500126C551.985 0.500127 562.064 7.24965 569.4 18.2898C576.734 29.3263 581.286 44.602 581.286 61.5002C581.286 78.3983 576.734 93.6741 569.4 104.711C562.064 115.751 551.985 122.5 540.92 122.5C529.855 122.5 519.776 115.751 512.44 104.711C505.106 93.6741 500.554 78.3983 500.554 61.5002Z" stroke="black" stroke-opacity="0.8"/>
<path d="M473.014 61.5002C473.014 44.602 477.566 29.3263 484.9 18.2898C492.236 7.24964 502.315 0.500125 513.38 0.500126C524.445 0.500127 534.524 7.24965 541.86 18.2898C549.194 29.3263 553.746 44.602 553.746 61.5002C553.746 78.3983 549.194 93.6741 541.86 104.711C534.524 115.751 524.445 122.5 513.38 122.5C502.315 122.5 492.236 115.751 484.9 104.711C477.566 93.6741 473.014 78.3983 473.014 61.5002Z" stroke="black" stroke-opacity="0.8"/>
<path d="M439.255 61.5002C439.255 44.602 443.807 29.3263 451.141 18.2898C458.477 7.24964 468.556 0.500125 479.621 0.500126C490.686 0.500127 500.765 7.24965 508.101 18.2898C515.435 29.3263 519.987 44.602 519.987 61.5002C519.987 78.3983 515.435 93.6741 508.101 104.711C500.765 115.751 490.686 122.5 479.621 122.5C468.556 122.5 458.477 115.751 451.141 104.711C443.807 93.6741 439.255 78.3983 439.255 61.5002Z" stroke="black" stroke-opacity="0.8"/>
</svg>
