<svg width="816" height="141" viewBox="0 0 816 141" fill="none" xmlns="http://www.w3.org/2000/svg">
<g clip-path="url(#clip0_76_2278)">
<mask id="mask0_76_2278" style="mask-type:alpha" maskUnits="userSpaceOnUse" x="0" y="0" width="816" height="141">
<path d="M816 0H0V141H816V0Z" fill="#C4C4C4"/>
</mask>
<g mask="url(#mask0_76_2278)">
<path d="M-135.295 52.4231L8.45587 -41.5769H-1.53395L-135.295 45.8906V52.4231Z" fill="black"/>
<path d="M-135.295 69.5962L36.6424 -41.5769H26.5707L-135.295 63.0839V69.5962Z" fill="black"/>
<path d="M-119.437 75.0193L100.062 -64.8886V-71.4038L-129.658 75.0193H-119.437Z" fill="black"/>
<path d="M-92.6979 75.0191L140.933 -73.0834V-79.5386L-102.881 75.0191H-92.6979Z" fill="black"/>
<path d="M-63.1878 75.0192L171.938 -75.7727V-82.25L-73.2852 75.0192H-63.1878Z" fill="black"/>
<path d="M-36.3526 75.0193L177.575 -60.4537V-66.8845L-46.5078 75.0193H-36.3526Z" fill="black"/>
<path d="M-9.60672 75.0192L197.306 -57.6802V-64.1731L-19.7307 75.0192H-9.60672Z" fill="black"/>
<path d="M-16.6625 96.7116L218.445 -54.0708V-60.5576L-26.7773 96.7116H-16.6625Z" fill="black"/>
<path d="M-7.75104 108.083L243.813 -54.114V-60.5576L-17.731 108.083H-7.75104Z" fill="black"/>
<path d="M-28.8911 137.093L270.59 -54.114V-60.5576L-39.0059 137.093H-28.8911Z" fill="black"/>
<path d="M197.42 171.731L548.228 -54.114V-60.5576L187.44 171.731H197.42Z" fill="black"/>
<path d="M499.991 155.01L830.093 -54.114V-60.5576L489.741 155.01H499.991Z" fill="black"/>
<path d="M-6.34153 139.761L295.959 -54.114V-60.5576L-16.3889 139.761H-6.34153Z" fill="black"/>
<path d="M207.876 181.338L575.005 -54.114V-60.5576L197.829 181.338H207.876Z" fill="black"/>
<path d="M512.29 164.121L851.233 -54.114V-60.5576L502.311 164.121H512.29Z" fill="black"/>
<path d="M-40.7558 178.058L319.917 -54.114V-60.5576L-50.7358 178.058H-40.7558Z" fill="black"/>
<path d="M275.523 152.502L600.373 -54.114V-60.5576L265.341 152.502H275.523Z" fill="black"/>
<path d="M526.633 170.375L878.01 -54.114V-60.5576L516.518 170.375H526.633Z" fill="black"/>
<path d="M-7.56932 172.183L345.285 -54.114V-60.5576L-17.6167 172.183H-7.56932Z" fill="black"/>
<path d="M293.845 157.021L625.741 -54.114V-60.5576L283.662 157.021H293.845Z" fill="black"/>
<path d="M573.845 156.365L903.378 -54.114V-60.5576L563.73 156.365H573.845Z" fill="black"/>
<path d="M39.5757 159.077L370.653 -54.114V-60.5576L29.5957 159.077H39.5757Z" fill="black"/>
<path d="M289.934 175.798L651.109 -54.114V-60.5576L279.751 175.798H289.934Z" fill="black"/>
<path d="M576.529 171.731L927.337 -54.114V-60.5576L566.549 171.731H576.529Z" fill="black"/>
<path d="M71.876 153.814L397.43 -54.114V-60.5576L61.7612 153.814H71.876Z" fill="black"/>
<path d="M317.28 175.346L675.067 -54.114V-60.5576L307.233 175.346H317.28Z" fill="black"/>
<path d="M608.441 165.856L954.114 -54.114V-60.5576L598.259 165.856H608.441Z" fill="black"/>
<path d="M91.6065 158.246L421.388 -54.114V-60.5576L81.6265 158.246H91.6065Z" fill="black"/>
<path d="M311.074 194.779L701.844 -54.114V-60.5576L300.891 194.779H311.074Z" fill="black"/>
<path d="M622.467 173.99L979.482 -54.114V-60.5576L612.352 173.99H622.467Z" fill="black"/>
<path d="M83.855 178.626L446.756 -54.114V-60.5576L73.8076 178.626H83.855Z" fill="black"/>
<path d="M395.316 157.881L727.212 -54.114V-60.5576L385.201 157.881H395.316Z" fill="black"/>
<path d="M658.472 167.212L1006.26 -54.114V-60.5576L648.29 167.212H658.472Z" fill="black"/>
<path d="M685.25 167.212L1033.04 -54.114V-60.5576L675.067 167.212H685.25Z" fill="black"/>
<path d="M712.027 167.212L1059.81 -54.114V-60.5576L701.845 167.212H712.027Z" fill="black"/>
<path d="M738.804 167.212L1086.59 -54.114V-60.5576L728.622 167.212H738.804Z" fill="black"/>
<path d="M765.581 167.212L1113.37 -54.114V-60.5576L755.399 167.212H765.581Z" fill="black"/>
<path d="M138.363 159.981L473.534 -54.114V-60.5576L128.249 159.981H138.363Z" fill="black"/>
<path d="M420.933 157.721L752.58 -54.114V-60.5576L410.819 157.721H420.933Z" fill="black"/>
<path d="M169.119 157.343L497.492 -54.114V-60.5576L159.14 157.343H169.119Z" fill="black"/>
<path d="M459.44 148.434L777.948 -54.114V-60.5576L449.258 148.434H459.44Z" fill="black"/>
<path d="M161.55 177.606L522.86 -54.114V-60.5576L151.502 177.606H161.55Z" fill="black"/>
<path d="M466.487 160.184L803.316 -54.114V-60.5576L456.304 160.184H466.487Z" fill="black"/>
</g>
</g>
<defs>
<clipPath id="clip0_76_2278">
<rect width="816" height="141" fill="white"/>
</clipPath>
</defs>
</svg>
