<svg width="608" height="119" viewBox="0 0 608 119" fill="none" xmlns="http://www.w3.org/2000/svg">
<g clip-path="url(#clip0_76_1826)">
<mask id="mask0_76_1826" style="mask-type:alpha" maskUnits="userSpaceOnUse" x="0" y="0" width="608" height="119">
<path d="M608 0L0 0L0 119L608 119V0Z" fill="#C4C4C4"/>
</mask>
<g mask="url(#mask0_76_1826)">
<path d="M-100.808 44.2436L6.30047 -35.0897H-1.14293L-100.808 38.7304V44.2436Z" fill="black"/>
<path d="M-100.808 58.7372L27.3022 -35.0897H19.7977L-100.808 53.241V58.7372Z" fill="black"/>
<path d="M-88.9918 63.3141L74.5562 -54.7642V-60.2628L-96.6079 63.3141H-88.9918Z" fill="black"/>
<path d="M-69.069 63.3141L105.009 -61.6802V-67.1282L-76.6562 63.3141H-69.069Z" fill="black"/>
<path d="M-47.0809 63.3141L128.111 -63.95V-69.4167L-54.6045 63.3141H-47.0809Z" fill="black"/>
<path d="M-27.0862 63.3141L132.311 -51.0212V-56.4487L-34.6528 63.3141H-27.0862Z" fill="black"/>
<path d="M-7.1578 63.3141L147.012 -48.6804V-54.1602L-14.7012 63.3141H-7.1578Z" fill="black"/>
<path d="M-12.4151 81.6218L162.763 -45.6343V-51.109L-19.9517 81.6218H-12.4151Z" fill="black"/>
<path d="M-5.77541 91.2188L181.665 -45.6708V-51.109L-13.2114 91.2188H-5.77541Z" fill="black"/>
<path d="M-21.5265 115.702L201.617 -45.6708V-51.109L-29.063 115.702H-21.5265Z" fill="black"/>
<path d="M147.097 144.936L408.483 -45.6708V-51.109L139.661 144.936H147.097Z" fill="black"/>
<path d="M372.542 130.824L618.501 -45.6708V-51.109L364.905 130.824H372.542Z" fill="black"/>
<path d="M-4.72514 117.954L220.518 -45.6708V-51.109L-12.2114 117.954H-4.72514Z" fill="black"/>
<path d="M154.888 153.044L428.435 -45.6708V-51.109L147.402 153.044H154.888Z" fill="black"/>
<path d="M381.706 138.514L634.252 -45.6708V-51.109L374.271 138.514H381.706Z" fill="black"/>
<path d="M-30.3671 150.276L238.369 -45.6708V-51.109L-37.8032 150.276H-30.3671Z" fill="black"/>
<path d="M205.292 128.707L447.337 -45.6708V-51.109L197.705 128.707H205.292Z" fill="black"/>
<path d="M392.393 143.792L654.204 -45.6708V-51.109L384.856 143.792H392.393Z" fill="black"/>
<path d="M-5.63994 145.317L257.271 -45.6708V-51.109L-13.1262 145.317H-5.63994Z" fill="black"/>
<path d="M218.943 132.521L466.238 -45.6708V-51.109L211.356 132.521H218.943Z" fill="black"/>
<path d="M427.571 131.968L673.105 -45.6708V-51.109L420.034 131.968H427.571Z" fill="black"/>
<path d="M29.4878 134.256L276.173 -45.6708V-51.109L22.0518 134.256H29.4878Z" fill="black"/>
<path d="M216.029 148.369L485.14 -45.6708V-51.109L208.442 148.369H216.029Z" fill="black"/>
<path d="M429.57 144.936L690.957 -45.6708V-51.109L422.135 144.936H429.57Z" fill="black"/>
<path d="M53.5545 129.814L296.124 -45.6708V-51.109L46.0181 129.814H53.5545Z" fill="black"/>
<path d="M236.405 147.987L502.991 -45.6708V-51.109L228.919 147.987H236.405Z" fill="black"/>
<path d="M453.349 139.978L710.909 -45.6708V-51.109L445.762 139.978H453.349Z" fill="black"/>
<path d="M68.2559 133.555L313.976 -45.6708V-51.109L60.8198 133.555H68.2559Z" fill="black"/>
<path d="M231.78 164.388L522.943 -45.6708V-51.109L224.193 164.388H231.78Z" fill="black"/>
<path d="M463.799 146.843L729.81 -45.6708V-51.109L456.262 146.843H463.799Z" fill="black"/>
<path d="M62.4802 150.755L332.877 -45.6708V-51.109L54.9939 150.755H62.4802Z" fill="black"/>
<path d="M294.549 133.247L541.844 -45.6708V-51.109L287.013 133.247H294.549Z" fill="black"/>
<path d="M490.626 141.122L749.761 -45.6708V-51.109L483.04 141.122H490.626Z" fill="black"/>
<path d="M510.578 141.122L769.713 -45.6708V-51.109L502.991 141.122H510.578Z" fill="black"/>
<path d="M530.53 141.122L789.665 -45.6708V-51.109L522.943 141.122H530.53Z" fill="black"/>
<path d="M550.481 141.122L809.616 -45.6708V-51.109L542.895 141.122H550.481Z" fill="black"/>
<path d="M570.433 141.122L829.568 -45.6708V-51.109L562.846 141.122H570.433Z" fill="black"/>
<path d="M103.094 135.019L352.829 -45.6708V-51.109L95.5579 135.019H103.094Z" fill="black"/>
<path d="M313.637 133.112L560.746 -45.6708V-51.109L306.1 133.112H313.637Z" fill="black"/>
<path d="M126.01 132.793L370.681 -45.6708V-51.109L118.575 132.793H126.01Z" fill="black"/>
<path d="M342.328 125.274L579.648 -45.6708V-51.109L334.741 125.274H342.328Z" fill="black"/>
<path d="M120.37 149.894L389.582 -45.6708V-51.109L112.884 149.894H120.37Z" fill="black"/>
<path d="M347.579 135.191L598.549 -45.6708V-51.109L339.992 135.191H347.579Z" fill="black"/>
</g>
</g>
<defs>
<clipPath id="clip0_76_1826">
<rect width="608" height="119" fill="white"/>
</clipPath>
</defs>
</svg>
