<svg width="608" height="156" viewBox="0 0 608 156" fill="none" xmlns="http://www.w3.org/2000/svg">
<g clip-path="url(#clip0_76_2278)">
<mask id="mask0_76_2278" style="mask-type:alpha" maskUnits="userSpaceOnUse" x="0" y="0" width="608" height="156">
<path d="M608 0H0V156H608V0Z" fill="#C4C4C4"/>
</mask>
<g mask="url(#mask0_76_2278)">
<path d="M-100.808 58L6.30045 -46H-1.14295L-100.808 50.7726V58Z" fill="black"/>
<path d="M-100.808 77L27.3022 -46H19.7978L-100.808 69.7949V77Z" fill="black"/>
<path d="M-88.9918 83L74.5562 -71.7917V-79L-96.6079 83H-88.9918Z" fill="black"/>
<path d="M-69.069 83L105.009 -80.8581V-88L-76.6562 83H-69.069Z" fill="black"/>
<path d="M-47.0809 83L128.111 -83.8336V-91L-54.6045 83H-47.0809Z" fill="black"/>
<path d="M-27.0862 83L132.311 -66.885V-74L-34.6528 83H-27.0862Z" fill="black"/>
<path d="M-7.1578 83L147.012 -63.8164V-71L-14.7012 83H-7.1578Z" fill="black"/>
<path d="M-12.4151 107L162.763 -59.8231V-67L-19.9517 107H-12.4151Z" fill="black"/>
<path d="M-5.77541 119.581L181.665 -59.8709V-67L-13.2114 119.581H-5.77541Z" fill="black"/>
<path d="M-21.5265 151.677L201.617 -59.8709V-67L-29.063 151.677H-21.5265Z" fill="black"/>
<path d="M147.097 190L408.483 -59.8709V-67L139.661 190H147.097Z" fill="black"/>
<path d="M372.542 171.5L618.501 -59.8709V-67L364.905 171.5H372.542Z" fill="black"/>
<path d="M-4.72514 154.629L220.518 -59.8709V-67L-12.2114 154.629H-4.72514Z" fill="black"/>
<path d="M154.888 200.629L428.435 -59.8709V-67L147.402 200.629H154.888Z" fill="black"/>
<path d="M381.706 181.581L634.252 -59.8709V-67L374.271 181.581H381.706Z" fill="black"/>
<path d="M-30.3671 197L238.369 -59.8709V-67L-37.8032 197H-30.3671Z" fill="black"/>
<path d="M205.292 168.725L447.337 -59.8709V-67L197.705 168.725H205.292Z" fill="black"/>
<path d="M392.393 188.5L654.204 -59.8709V-67L384.856 188.5H392.393Z" fill="black"/>
<path d="M-5.63994 190.5L257.271 -59.8709V-67L-13.1262 190.5H-5.63994Z" fill="black"/>
<path d="M218.943 173.725L466.238 -59.8709V-67L211.356 173.725H218.943Z" fill="black"/>
<path d="M427.571 173L673.105 -59.8709V-67L420.034 173H427.571Z" fill="black"/>
<path d="M29.4878 176L276.173 -59.8709V-67L22.0518 176H29.4878Z" fill="black"/>
<path d="M216.029 194.5L485.14 -59.8709V-67L208.442 194.5H216.029Z" fill="black"/>
<path d="M429.57 190L690.957 -59.8709V-67L422.135 190H429.57Z" fill="black"/>
<path d="M53.5545 170.177L296.124 -59.8709V-67L46.0181 170.177H53.5545Z" fill="black"/>
<path d="M236.405 194L502.991 -59.8709V-67L228.919 194H236.405Z" fill="black"/>
<path d="M453.348 183.5L710.908 -59.8709V-67L445.761 183.5H453.348Z" fill="black"/>
<path d="M68.2559 175.081L313.976 -59.8709V-67L60.8198 175.081H68.2559Z" fill="black"/>
<path d="M231.78 215.5L522.943 -59.8709V-67L224.193 215.5H231.78Z" fill="black"/>
<path d="M463.799 192.5L729.81 -59.8709V-67L456.262 192.5H463.799Z" fill="black"/>
<path d="M62.4802 197.629L332.877 -59.8709V-67L54.9939 197.629H62.4802Z" fill="black"/>
<path d="M294.549 174.677L541.845 -59.8709V-67L287.013 174.677H294.549Z" fill="black"/>
<path d="M490.626 185L749.762 -59.8709V-67L483.04 185H490.626Z" fill="black"/>
<path d="M510.578 185L769.713 -59.8709V-67L502.991 185H510.578Z" fill="black"/>
<path d="M530.53 185L789.665 -59.8709V-67L522.943 185H530.53Z" fill="black"/>
<path d="M550.481 185L809.616 -59.8709V-67L542.895 185H550.481Z" fill="black"/>
<path d="M570.433 185L829.568 -59.8709V-67L562.846 185H570.433Z" fill="black"/>
<path d="M103.094 177L352.829 -59.8709V-67L95.5579 177H103.094Z" fill="black"/>
<path d="M313.637 174.5L560.746 -59.8709V-67L306.1 174.5H313.637Z" fill="black"/>
<path d="M126.01 174.081L370.68 -59.8709V-67L118.575 174.081H126.01Z" fill="black"/>
<path d="M342.328 164.225L579.648 -59.8709V-67L334.741 164.225H342.328Z" fill="black"/>
<path d="M120.37 196.5L389.582 -59.8709V-67L112.884 196.5H120.37Z" fill="black"/>
<path d="M347.579 177.225L598.549 -59.8709V-67L339.992 177.225H347.579Z" fill="black"/>
</g>
</g>
<defs>
<clipPath id="clip0_76_2278">
<rect width="608" height="156" fill="white"/>
</clipPath>
</defs>
</svg>
