<svg width="1434" height="80" viewBox="0 0 1434 80" fill="none" xmlns="http://www.w3.org/2000/svg">
<path d="M39.3101 80V0H29.921V80H39.3101ZM20.5318 80V0H1.75342V80H20.5318Z" fill="black"/>
<path d="M101.351 80V0H73.1831V80H101.351Z" fill="black"/>
<path d="M159.724 80V0H131.556V80H159.724ZM178.502 80V0H169.113V80H178.502Z" fill="black"/>
<path d="M250.317 80V0H240.927V80H250.317ZM231.538 80V0H203.371V80H231.538Z" fill="black"/>
<path d="M312.742 80V0H293.964V80H312.742ZM284.576 80V0H275.186V80H284.576Z" fill="black"/>
<path d="M389.178 80V0H379.79V80H389.178ZM370.4 80V0H342.231V80H370.4Z" fill="black"/>
<path d="M442.215 80V0H414.046V80H442.215ZM460.993 80V0H451.603V80H460.993Z" fill="black"/>
<path d="M495.25 80V0H485.862V80H495.25ZM532.806 80V0H504.64V80H532.806Z" fill="black"/>
<path d="M634.773 80V0H606.605V80H634.773Z" fill="black"/>
<path d="M685.912 80V0H657.744V80H685.912Z" fill="black"/>
<path d="M718.143 80V0H708.752V80H718.143ZM755.699 80V0H727.531V80H755.699ZM774.477 80V0H765.089V80H774.477Z" fill="black"/>
<path d="M808.552 80V0H799.164V80H808.552ZM836.72 80V0H827.33V80H836.72Z" fill="black"/>
<path d="M808.552 80V0H799.164V80H808.552ZM836.72 80V0H827.33V80H836.72Z" fill="black"/>
<path d="M866.062 80V0H856.674V80H866.062ZM884.841 80V0H875.453V80H884.841ZM903.619 80V0H894.231V80H903.619Z" fill="black"/>
<path d="M992.144 80V0H973.365V80H992.144ZM1020.31 80V0H1010.92V80H1020.31Z" fill="black"/>
<path d="M1054.57 80V0H1045.18V80H1054.57ZM1082.74 80V0H1073.35V80H1082.74Z" fill="black"/>
<path d="M1054.57 80V0H1045.18V80H1054.57ZM1082.74 80V0H1073.35V80H1082.74Z" fill="black"/>
<path d="M1140.25 80V0H1130.86V80H1140.25ZM1121.47 80V0H1102.69V80H1121.47Z" fill="black"/>
<path d="M1174.12 80V0H1164.73V80H1174.12Z" fill="black"/>
<path d="M575.877 80V0H566.489V80H575.877Z" fill="black"/>
<path d="M1218.37 80V0H1199.59V80H1218.37ZM1246.54 80V0H1227.76V80H1246.54Z" fill="black"/>
<path d="M1276.51 80V0H1267.12V80H1276.51ZM1314.06 80V0H1295.29V80H1314.06Z" fill="black"/>
<path d="M1348.32 80V0H1338.93V80H1348.32ZM1376.49 80V0H1367.1V80H1376.49Z" fill="black"/>
<path d="M1434 80V0H1415.22V80H1434ZM1405.83 80V0H1396.44V80H1405.83Z" fill="black"/>
</svg>
