<svg width="40" height="40" viewBox="0 0 40 40" fill="none" xmlns="http://www.w3.org/2000/svg">
<path d="M34.395 10.6963C31.0037 4.86938 24.5762 1.25 17.6206 1.25C16.9675 1.25 16.3075 1.2825 15.6581 1.34625L11.5162 1.75313L15.2544 3.56438C18.1319 4.95875 20.4887 7.13187 22.0694 9.84812C22.9068 11.2804 23.5045 12.8399 23.8387 14.465C24.0919 15.6931 23.9787 16.82 23.5506 17.3375C23.4075 17.5119 23.1375 17.7437 22.4619 17.7437C22.1187 17.7437 21.7175 17.6819 21.2675 17.5606C21.0163 17.4934 20.7575 17.4592 20.4975 17.4588C18.8962 17.4581 17.4669 18.7494 17.2437 20.3969C17.0956 21.495 17.5175 22.8088 18.9837 23.6675C18.7544 24.0075 18.595 24.4256 18.6431 24.9325C18.6694 25.2031 18.7531 25.4456 18.8712 25.6638C18.43 25.9844 18.0575 26.4125 17.9381 26.9769C17.825 27.5069 17.8969 28.2881 18.8281 29.0731C18.6938 29.2861 18.5268 29.4766 18.3331 29.6375C17.5292 30.2966 16.6659 30.8797 15.7544 31.3794C13.1547 32.8022 10.228 33.5201 7.265 33.4619L3.125 33.3781L6.59437 35.6156C9.77375 37.6669 13.4844 38.75 17.3237 38.75C20.6809 38.7472 23.9835 37.9006 26.9281 36.2881C31.5169 33.7725 34.805 29.68 36.1862 24.7662C37.5306 19.9856 36.8937 14.9881 34.395 10.6963M26.3537 35.2631C23.5867 36.7829 20.4807 37.5792 17.3237 37.5781C13.7387 37.5781 10.22 36.5544 7.24187 34.6344C11.553 34.7244 15.7546 33.2728 19.0906 30.5406C19.6025 30.1206 20.6181 28.9619 19.7244 28.2838C17.7444 26.7813 20.9956 25.9956 20.9956 25.9956C17.9462 24.3737 21.9375 23.4488 20.7462 23.1275C16.9094 22.0925 18.4862 18.6306 20.4987 18.6312C20.65 18.6312 20.8031 18.6506 20.9575 18.6925C21.5281 18.8463 22.0275 18.9163 22.4631 18.9163C25.1675 18.9163 25.4119 16.2225 25.0025 14.2331C24.642 12.4844 23.9987 10.8061 23.0981 9.26437C21.3412 6.24563 18.7612 3.95875 15.7756 2.5125C16.3919 2.45187 17.0069 2.42188 17.6206 2.42188C23.9444 2.42188 30.0619 5.60125 33.3675 11.2812C38.2756 19.7112 35.1344 30.4488 26.3537 35.2631" fill="white"/>
<path d="M25.3117 26.9262C26.0536 26.9468 26.8042 26.9218 27.543 26.7674C27.9156 26.6953 28.278 26.5782 28.6223 26.4187C28.9605 26.2549 29.2955 26.0218 29.4805 25.7018C29.1917 25.938 28.8661 26.0662 28.5211 26.1505C28.1805 26.2412 27.8292 26.2849 27.4755 26.3174C26.7627 26.3691 26.0474 26.3771 25.3336 26.3412C23.8955 26.2887 22.4636 26.1399 20.9955 25.9949C21.6698 26.3018 22.3848 26.5055 23.108 26.6555C23.8311 26.8087 24.5698 26.8937 25.3117 26.9262ZM21.4786 28.048C21.1111 28.1255 20.7242 28.2818 20.4805 28.578C20.8486 28.4968 21.1823 28.4968 21.5236 28.503C21.8642 28.5168 22.2048 28.5399 22.5492 28.5743C23.2398 28.6274 23.9336 28.7168 24.6855 28.678C24.0536 28.2699 23.3386 28.0674 22.6017 27.9912C22.2317 27.963 21.853 27.9649 21.4786 28.048ZM22.2111 22.3468C21.8417 22.263 21.5048 22.253 21.1011 22.3837C21.3805 22.7012 21.7405 22.8243 22.0592 22.9137L22.498 23.0162C22.633 23.0562 22.7717 23.1112 22.9642 23.2237C23.003 23.0212 22.913 22.7918 22.7536 22.6374C22.5917 22.4743 22.3905 22.4012 22.2111 22.3468ZM28 19C28 19 29.5 19.5 30 19C30 19 28 18.5 27 18C25.9925 17.7269 26.5905 16.188 26.3105 17.1662C26.0305 18.1437 28 19 28 19Z" fill="white"/>
<path d="M29.7786 25.1243C29.2249 24.6536 28.5967 24.318 27.978 23.9955L26.1186 23.0918C25.5224 22.7724 24.9099 22.4649 24.5005 21.8955C24.693 22.593 25.3136 23.0874 25.8817 23.4824C26.468 23.8843 27.0955 24.1986 27.708 24.5161C28.3249 24.8255 28.938 25.128 29.4967 25.4874C30.0392 25.8499 30.5774 26.2961 30.6286 27.0149C30.7349 26.6774 30.6655 26.2843 30.4886 25.958C30.3092 25.6318 30.0536 25.358 29.7786 25.1243Z" fill="white"/>
</svg>
