<svg width="50" height="50" viewBox="0 0 50 50" fill="none" xmlns="http://www.w3.org/2000/svg">
<path d="M25.0586 1.99219C27.4707 7.26562 20.625 8.36914 21.0547 14.2578L16.8164 10.3906L18.2617 16.9531L11.8359 14.6387L15.6934 20.1367L8.87793 20.459L14.3164 23.916C8.90918 26.4746 6.89844 20.498 1.99121 24.9414C7.26855 22.5293 8.37109 29.375 14.2578 28.9453L10.3906 33.1836L16.9531 31.7383L14.6387 38.1641L20.1367 34.3066L20.459 41.1133L23.916 35.6836C26.4746 41.1133 20.498 43.0664 24.9414 48.0469C22.5293 42.7734 29.375 41.6016 28.9453 35.7422L33.1836 39.6484L31.7383 33.0469L38.1641 35.3613L34.3066 29.8633L41.123 29.541L35.6836 26.084C41.0937 23.5254 43.1055 29.502 48.0078 25.0586C42.7344 27.4707 41.6309 20.625 35.752 21.0547L39.6094 16.8164L33.0469 18.2617L35.3613 11.8359L29.8633 15.6934L29.541 8.87695L26.084 14.3164C23.5254 8.90625 29.502 6.89453 25.0586 1.99219V1.99219ZM25 15.0879C30.4687 15.0879 34.9121 19.5313 34.9121 25C34.9121 30.4688 30.4687 34.9121 25 34.9121C19.5312 34.9121 15.0879 30.4688 15.0879 25C15.0879 19.5313 19.5312 15.0879 25 15.0879ZM25 17.1191C20.6543 17.1191 17.1191 20.6543 17.1191 25C17.1191 29.3457 20.6543 32.8809 25 32.8809C29.3457 32.8809 32.8809 29.3457 32.8809 25C32.8809 20.6543 29.3457 17.1191 25 17.1191ZM21.5234 20.4004C23.291 20.3711 25 21.6016 25 23.291V28.8086L23.1836 28.1738C23.1836 28.1738 26.0645 21.3086 21.4551 21.3086C19.6387 21.3086 18.4473 22.2363 18.4473 22.2363C19.2187 20.9668 20.3809 20.4199 21.5234 20.4004V20.4004ZM21.3184 22.2852C22.3047 22.2754 23.2617 22.7344 23.5547 23.9648H22.334C22.3633 24.0332 22.3828 24.1113 22.3828 24.1895C22.3828 24.6387 21.8262 25 21.1328 25C20.4492 25 19.8926 24.6387 19.8926 24.1895C19.8926 24.1113 19.9121 24.0332 19.9414 23.9648H18.7207C18.7207 23.1641 19.7656 22.4609 20.8887 22.3145L21.3184 22.2852V22.2852ZM28.6816 22.2852C29.9609 22.2949 31.2793 23.0664 31.2793 23.9648H30.0586C30.0879 24.0332 30.1074 24.1113 30.1074 24.1895C30.1074 24.6387 29.5508 25 28.8672 25C28.1738 25 27.6172 24.6387 27.6172 24.1895C27.6172 24.1113 27.6367 24.0332 27.666 23.9648H26.4453C26.709 22.8223 27.5586 22.3438 28.4766 22.2949L28.6816 22.2852V22.2852ZM24.3066 29.7754C24.5215 29.7754 24.7363 29.8438 25 30.0684C25.8301 29.3457 26.2402 30.2051 27.6172 30.2051C27.6172 30.2051 26.582 31.0449 25 31.0449C23.418 31.0449 22.3828 30.2051 22.3828 30.2051C23.3301 30.2051 23.8184 29.7949 24.3066 29.7754Z" fill="black"/>
</svg>
