<svg width="602" height="58" viewBox="0 0 602 58" fill="none" xmlns="http://www.w3.org/2000/svg">
<g clip-path="url(#clip0_76_2001)">
<mask id="mask0_76_2001" style="mask-type:alpha" maskUnits="userSpaceOnUse" x="0" y="0" width="602" height="58">
<path d="M602 0L0 0L0 58L602 58V0Z" fill="#C4C4C4"/>
</mask>
<g mask="url(#mask0_76_2001)">
<path d="M-99.8135 21.5641L6.23835 -17.1025L-1.1316 -17.1025L-99.8135 18.877V21.5641Z" fill="black"/>
<path d="M-99.8135 28.6282L27.0328 -17.1025H19.6024L-99.8135 25.9494V28.6282Z" fill="black"/>
<path d="M-88.1136 30.859L73.8204 -26.6918V-29.3718L-95.6545 30.859H-88.1136Z" fill="black"/>
<path d="M-68.3875 30.859L103.972 -30.0626V-32.718L-75.8999 30.859H-68.3875Z" fill="black"/>
<path d="M-46.6164 30.859L126.846 -31.1689V-33.8333L-54.0657 30.859H-46.6164Z" fill="black"/>
<path d="M-26.8189 30.859L131.005 -24.8675V-27.5128L-34.3108 30.859H-26.8189Z" fill="black"/>
<path d="M-7.08722 30.859L145.561 -23.7266V-26.3974L-14.5562 30.859H-7.08722Z" fill="black"/>
<path d="M-12.2927 39.7821L161.157 -22.2419V-24.9102L-19.7549 39.7821H-12.2927Z" fill="black"/>
<path d="M-5.71817 44.4596L179.872 -22.2597V-24.9102L-13.0808 44.4596H-5.71817Z" fill="black"/>
<path d="M-21.3143 56.3928L199.627 -22.2597V-24.9102L-28.7764 56.3928H-21.3143Z" fill="black"/>
<path d="M145.645 70.6411L404.452 -22.2597V-24.9102L138.283 70.6411H145.645Z" fill="black"/>
<path d="M368.866 63.7629L612.397 -22.2597V-24.9102L361.304 63.7629H368.866Z" fill="black"/>
<path d="M-4.67841 57.4903L218.342 -22.2597V-24.9102L-12.0908 57.4903H-4.67841Z" fill="black"/>
<path d="M153.359 74.5929L424.207 -22.2597V-24.9102L145.947 74.5929H153.359Z" fill="black"/>
<path d="M377.939 67.5109L627.993 -22.2597V-24.9102L370.577 67.5109H377.939Z" fill="black"/>
<path d="M-30.0675 73.2436L236.017 -22.2597V-24.9102L-37.4302 73.2436H-30.0675Z" fill="black"/>
<path d="M203.266 62.7311L442.922 -22.2597V-24.9102L195.754 62.7311H203.266Z" fill="black"/>
<path d="M388.521 70.0834L647.748 -22.2597V-24.9102L381.059 70.0834H388.521Z" fill="black"/>
<path d="M-5.58417 70.827L254.732 -22.2597V-24.9102L-12.9966 70.827H-5.58417Z" fill="black"/>
<path d="M216.783 64.5901L461.637 -22.2597V-24.9102L209.271 64.5901H216.783Z" fill="black"/>
<path d="M423.352 64.3205L666.463 -22.2597V-24.9102L415.889 64.3205H423.352Z" fill="black"/>
<path d="M29.1969 65.4359L273.447 -22.2597V-24.9102L21.8342 65.4359H29.1969Z" fill="black"/>
<path d="M213.897 72.3141L480.352 -22.2597V-24.9102L206.385 72.3141H213.897Z" fill="black"/>
<path d="M425.331 70.6411L684.138 -22.2597V-24.9102L417.969 70.6411H425.331Z" fill="black"/>
<path d="M53.0261 63.271L293.202 -22.2597V-24.9102L45.564 63.271H53.0261Z" fill="black"/>
<path d="M234.072 72.1282L498.028 -22.2597V-24.9102L226.66 72.1282H234.072Z" fill="black"/>
<path d="M448.875 68.2244L703.893 -22.2597V-24.9102L441.363 68.2244H448.875Z" fill="black"/>
<path d="M67.5824 65.0943L310.877 -22.2597V-24.9102L60.2197 65.0943H67.5824Z" fill="black"/>
<path d="M229.493 80.1218L517.782 -22.2597V-24.9102L221.981 80.1218H229.493Z" fill="black"/>
<path d="M459.222 71.5705L722.608 -22.2597V-24.9102L451.76 71.5705H459.222Z" fill="black"/>
<path d="M61.8638 73.4775L329.592 -22.2597V-24.9102L54.4514 73.4775H61.8638Z" fill="black"/>
<path d="M291.643 64.9441L536.497 -22.2597V-24.9102L284.18 64.9441H291.643Z" fill="black"/>
<path d="M485.785 68.7821L742.363 -22.2597V-24.9102L478.273 68.7821H485.785Z" fill="black"/>
<path d="M505.54 68.7821L762.117 -22.2597V-24.9102L498.028 68.7821H505.54Z" fill="black"/>
<path d="M525.294 68.7821L781.872 -22.2597V-24.9102L517.782 68.7821H525.294Z" fill="black"/>
<path d="M545.049 68.7821L801.627 -22.2597V-24.9102L537.537 68.7821H545.049Z" fill="black"/>
<path d="M564.804 68.7821L821.382 -22.2597V-24.9102L557.292 68.7821H564.804Z" fill="black"/>
<path d="M102.077 65.8077L349.347 -22.2597V-24.9102L94.6147 65.8077H102.077Z" fill="black"/>
<path d="M310.542 64.8782L555.213 -22.2597V-24.9102L303.08 64.8782H310.542Z" fill="black"/>
<path d="M124.767 64.7225L367.022 -22.2597V-24.9102L117.405 64.7225H124.767Z" fill="black"/>
<path d="M338.95 61.0581L573.928 -22.2597V-24.9102L331.438 61.0581H338.95Z" fill="black"/>
<path d="M119.182 73.0577L385.737 -22.2597V-24.9102L111.77 73.0577H119.182Z" fill="black"/>
<path d="M344.148 65.8914L592.642 -22.2597V-24.9102L336.636 65.8914H344.148Z" fill="black"/>
</g>
</g>
<defs>
<clipPath id="clip0_76_2001">
<rect width="602" height="58" fill="white"/>
</clipPath>
</defs>
</svg>
