<svg width="460" height="123" viewBox="0 0 460 123" fill="none" xmlns="http://www.w3.org/2000/svg">
<g clip-path="url(#clip0_76_2325)">
<path d="M12.61 123V0H9.59812V123H12.61ZM6.58624 123V0H0.5625V123H6.58624Z" fill="black"/>
<path d="M32.5115 123V0H23.4758V123H32.5115Z" fill="black"/>
<path d="M51.2363 123V0H42.2007V123H51.2363ZM57.26 123V0H54.2481V123H57.26Z" fill="black"/>
<path d="M80.297 123V0H77.2848V123H80.297ZM74.2733 123V0H65.2375V123H74.2733Z" fill="black"/>
<path d="M100.322 123V0H94.2979V123H100.322ZM91.2864 123V0H88.2742V123H91.2864Z" fill="black"/>
<path d="M124.841 123V0H121.829V123H124.841ZM118.817 123V0H109.781V123H118.817Z" fill="black"/>
<path d="M141.854 123V0H132.818V123H141.854ZM147.878 123V0H144.866V123H147.878Z" fill="black"/>
<path d="M158.867 123V0H155.855V123H158.867ZM170.914 123V0H161.879V123H170.914Z" fill="black"/>
<path d="M203.623 123V0H194.587V123H203.623Z" fill="black"/>
<path d="M230.366 123V0H227.354V123H230.366ZM242.414 123V0H233.378V123H242.414ZM248.438 123V0H245.426V123H248.438Z" fill="black"/>
<path d="M259.368 123V0H256.356V123H259.368ZM268.404 123V0H265.392V123H268.404Z" fill="black"/>
<path d="M277.816 123V0H274.805V123H277.816ZM283.84 123V0H280.829V123H283.84ZM289.864 123V0H286.852V123H289.864Z" fill="black"/>
<path d="M318.261 123V0H312.237V123H318.261ZM327.296 123V0H324.284V123H327.296Z" fill="black"/>
<path d="M338.286 123V0H335.273V123H338.286ZM347.321 123V0H344.309V123H347.321Z" fill="black"/>
<path d="M365.769 123V0H362.758V123H365.769ZM359.746 123V0H353.722V123H359.746Z" fill="black"/>
<path d="M376.635 123V0H373.624V123H376.635Z" fill="black"/>
<path d="M390.831 123V0H384.807V123H390.831ZM399.867 123V0H393.843V123H399.867Z" fill="black"/>
<path d="M409.479 123V0H406.467V123H409.479ZM421.527 123V0H415.503V123H421.527Z" fill="black"/>
<path d="M432.516 123V0H429.504V123H432.516ZM441.552 123V0H438.539V123H441.552Z" fill="black"/>
<path d="M460 123V0H453.976V123H460ZM450.964 123V0H447.953V123H450.964Z" fill="black"/>
</g>
<defs>
<clipPath id="clip0_76_2325">
<rect width="460" height="123" fill="white"/>
</clipPath>
</defs>
</svg>
