<svg width="608" height="119" viewBox="0 0 608 119" fill="none" xmlns="http://www.w3.org/2000/svg">
<g clip-path="url(#clip0_76_2048)">
<path d="M16.667 119V0H12.6861V119H16.667ZM8.70523 119V0H0.743408V119H8.70523Z" fill="black"/>
<path d="M42.9716 119V0H31.0288V119H42.9716Z" fill="black"/>
<path d="M67.721 119V0H55.7783V119H67.721ZM75.6829 119V0H71.7019V119H75.6829Z" fill="black"/>
<path d="M106.132 119V0H102.15V119H106.132ZM98.1699 119V0H86.2271V119H98.1699Z" fill="black"/>
<path d="M132.599 119V0H124.637V119H132.599ZM120.657 119V0H116.676V119H120.657Z" fill="black"/>
<path d="M165.007 119V0H161.027V119H165.007ZM157.045 119V0H145.102V119H157.045Z" fill="black"/>
<path d="M187.494 119V0H175.551V119H187.494ZM195.456 119V0H191.475V119H195.456Z" fill="black"/>
<path d="M209.98 119V0H206V119H209.98ZM225.904 119V0H213.962V119H225.904Z" fill="black"/>
<path d="M269.137 119V0H257.194V119H269.137Z" fill="black"/>
<path d="M304.485 119V0H300.503V119H304.485ZM320.408 119V0H308.465V119H320.408ZM328.37 119V0H324.389V119H328.37Z" fill="black"/>
<path d="M342.817 119V0H338.836V119H342.817ZM354.76 119V0H350.779V119H354.76Z" fill="black"/>
<path d="M367.201 119V0H363.22V119H367.201ZM375.163 119V0H371.182V119H375.163ZM383.124 119V0H379.144V119H383.124Z" fill="black"/>
<path d="M420.658 119V0H412.696V119H420.658ZM432.6 119V0H428.62V119H432.6Z" fill="black"/>
<path d="M447.125 119V0H443.144V119H447.125ZM459.068 119V0H455.087V119H459.068Z" fill="black"/>
<path d="M483.451 119V0H479.471V119H483.451ZM475.49 119V0H467.528V119H475.49Z" fill="black"/>
<path d="M497.813 119V0H493.833V119H497.813Z" fill="black"/>
<path d="M516.576 119V0H508.614V119H516.576ZM528.519 119V0H520.557V119H528.519Z" fill="black"/>
<path d="M541.225 119V0H537.244V119H541.225ZM557.149 119V0H549.187V119H557.149Z" fill="black"/>
<path d="M571.673 119V0H567.692V119H571.673ZM583.616 119V0H579.635V119H583.616Z" fill="black"/>
<path d="M608 119V0H600.038V119H608ZM596.057 119V0H592.076V119H596.057Z" fill="black"/>
</g>
<defs>
<clipPath id="clip0_76_2048">
<rect width="608" height="119" fill="white"/>
</clipPath>
</defs>
</svg>
