<svg width="314" height="123" viewBox="0 0 314 123" fill="none" xmlns="http://www.w3.org/2000/svg">
<g clip-path="url(#clip0_76_2325)">
<path d="M8.60775 123V0H6.55183V123H8.60775ZM4.49589 123V0H0.384033V123H4.49589Z" fill="black"/>
<path d="M22.1925 123V0H16.0247V123H22.1925Z" fill="black"/>
<path d="M34.9744 123V0H28.8066V123H34.9744ZM39.0863 123V0H37.0303V123H39.0863Z" fill="black"/>
<path d="M54.8114 123V0H52.7553V123H54.8114ZM50.6996 123V0H44.5317V123H50.6996Z" fill="black"/>
<path d="M68.4805 123V0H64.3687V123H68.4805ZM62.313 123V0H60.2568V123H62.313Z" fill="black"/>
<path d="M85.2176 123V0H83.1619V123H85.2176ZM81.1057 123V0H74.9377V123H81.1057Z" fill="black"/>
<path d="M96.8308 123V0H90.6628V123H96.8308ZM100.943 123V0H98.8865V123H100.943Z" fill="black"/>
<path d="M108.444 123V0H106.388V123H108.444ZM116.668 123V0H110.5V123H116.668Z" fill="black"/>
<path d="M138.995 123V0H132.827V123H138.995Z" fill="black"/>
<path d="M157.25 123V0H155.194V123H157.25ZM165.474 123V0H159.306V123H165.474ZM169.586 123V0H167.53V123H169.586Z" fill="black"/>
<path d="M177.047 123V0H174.991V123H177.047ZM183.215 123V0H181.159V123H183.215Z" fill="black"/>
<path d="M189.64 123V0H187.584V123H189.64ZM193.752 123V0H191.696V123H193.752ZM197.864 123V0H195.808V123H197.864Z" fill="black"/>
<path d="M217.248 123V0H213.136V123H217.248ZM223.415 123V0H221.359V123H223.415Z" fill="black"/>
<path d="M230.917 123V0H228.861V123H230.917ZM237.084 123V0H235.029V123H237.084Z" fill="black"/>
<path d="M249.677 123V0H247.622V123H249.677ZM245.565 123V0H241.454V123H245.565Z" fill="black"/>
<path d="M257.094 123V0H255.039V123H257.094Z" fill="black"/>
<path d="M266.784 123V0H262.672V123H266.784ZM272.952 123V0H268.84V123H272.952Z" fill="black"/>
<path d="M279.514 123V0H277.458V123H279.514ZM287.738 123V0H283.626V123H287.738Z" fill="black"/>
<path d="M295.239 123V0H293.183V123H295.239ZM301.407 123V0H299.351V123H301.407Z" fill="black"/>
<path d="M314 123V0H309.888V123H314ZM307.832 123V0H305.776V123H307.832Z" fill="black"/>
</g>
<defs>
<clipPath id="clip0_76_2325">
<rect width="314" height="123" fill="white"/>
</clipPath>
</defs>
</svg>
