<svg width="816" viewBox="0 0 816 119" fill="none" xmlns="http://www.w3.org/2000/svg">
<g clip-path="url(#clip0_76_2048)">
<path d="M22.369 119V0H17.0262V119H22.369ZM11.6834 119V0H0.997803V119H11.6834Z" fill="black"/>
<path d="M57.6722 119V0H41.6438V119H57.6722Z" fill="black"/>
<path d="M90.8887 119V0H74.8604V119H90.8887ZM101.574 119V0H96.2314V119H101.574Z" fill="black"/>
<path d="M142.44 119V0H137.096V119H142.44ZM131.754 119V0H115.726V119H131.754Z" fill="black"/>
<path d="M177.962 119V0H167.276V119H177.962ZM161.934 119V0H156.591V119H161.934Z" fill="black"/>
<path d="M221.457 119V0H216.115V119H221.457ZM210.771 119V0H194.742V119H210.771Z" fill="black"/>
<path d="M251.637 119V0H235.608V119H251.637ZM262.323 119V0H256.979V119H262.323Z" fill="black"/>
<path d="M281.816 119V0H276.474V119H281.816ZM303.187 119V0H287.159V119H303.187Z" fill="black"/>
<path d="M361.21 119V0H345.181V119H361.21Z" fill="black"/>
<path d="M408.65 119V0H403.307V119H408.65ZM430.021 119V0H413.992V119H430.021ZM440.707 119V0H435.365V119H440.707Z" fill="black"/>
<path d="M460.096 119V0H454.754V119H460.096ZM476.125 119V0H470.782V119H476.125Z" fill="black"/>
<path d="M492.822 119V0H487.48V119H492.822ZM503.508 119V0H498.166V119H503.508ZM514.193 119V0H508.851V119H514.193Z" fill="black"/>
<path d="M564.567 119V0H553.881V119H564.567ZM580.595 119V0H575.252V119H580.595Z" fill="black"/>
<path d="M600.089 119V0H594.746V119H600.089ZM616.117 119V0H610.775V119H616.117Z" fill="black"/>
<path d="M648.843 119V0H643.501V119H648.843ZM638.157 119V0H627.472V119H638.157Z" fill="black"/>
<path d="M668.118 119V0H662.776V119H668.118Z" fill="black"/>
<path d="M693.299 119V0H682.614V119H693.299ZM709.328 119V0H698.643V119H709.328Z" fill="black"/>
<path d="M726.381 119V0H721.038V119H726.381ZM747.752 119V0H737.067V119H747.752Z" fill="black"/>
<path d="M767.245 119V0H761.903V119H767.245ZM783.274 119V0H777.931V119H783.274Z" fill="black"/>
<path d="M816 119V0H805.314V119H816ZM799.971 119V0H794.629V119H799.971Z" fill="black"/>
</g>
<defs>
<clipPath id="clip0_76_2048">
<rect width="816" height="119" fill="white"/>
</clipPath>
</defs>
</svg>
