<svg width="56" height="86" viewBox="0 0 56 86" fill="none" xmlns="http://www.w3.org/2000/svg">
<path fill-rule="evenodd" clip-rule="evenodd" d="M28 0.125C28.8122 0.125 29.5911 0.447655 30.1655 1.02199C30.7398 1.59632 31.0625 2.37527 31.0625 3.1875V75.4196L50.3317 56.1442C50.9068 55.5692 51.6867 55.2461 52.5 55.2461C53.3132 55.2461 54.0932 55.5692 54.6682 56.1442C55.2433 56.7193 55.5663 57.4992 55.5663 58.3125C55.5663 59.1258 55.2433 59.9057 54.6682 60.4808L30.1682 84.9808C29.8837 85.266 29.5458 85.4922 29.1737 85.6466C28.8017 85.801 28.4028 85.8805 28 85.8805C27.5971 85.8805 27.1983 85.801 26.8262 85.6466C26.4541 85.4922 26.1162 85.266 25.8317 84.9808L1.33171 60.4808C0.756656 59.9057 0.433594 59.1258 0.433594 58.3125C0.433594 57.4992 0.756656 56.7193 1.33171 56.1442C1.90677 55.5692 2.68671 55.2461 3.49996 55.2461C4.31321 55.2461 5.09316 55.5692 5.66821 56.1442L24.9375 75.4196V3.1875C24.9375 2.37527 25.2601 1.59632 25.8344 1.02199C26.4088 0.447655 27.1877 0.125 28 0.125Z" fill="black"/>
</svg>
