<svg width="44" height="34" viewBox="0 0 44 34" fill="none" xmlns="http://www.w3.org/2000/svg">
<path d="M1.72143 32.0582C1.31575 31.8802 0.997414 31.5482 0.836458 31.1355C0.675502 30.7227 0.685109 30.2629 0.863162 29.8573C1.04121 29.4516 1.37313 29.1332 1.78589 28.9723C2.19865 28.8113 2.65845 28.8209 3.06413 28.999C7.52726 30.9518 12.5828 31.0546 17.1216 29.2847C21.6604 27.5148 25.3118 24.0168 27.2747 19.5581L33.7113 4.8929L24.2663 8.59183C23.8502 8.75178 23.3878 8.74101 22.9796 8.56187C22.5715 8.38272 22.2505 8.04967 22.0866 7.63516C21.9322 7.21871 21.9457 6.75856 22.1242 6.35187C22.3027 5.94517 22.6322 5.62375 23.0432 5.45546L36.249 0.305871C36.6651 0.145921 37.1275 0.156691 37.5357 0.335839C37.9438 0.514987 38.2648 0.848027 38.4287 1.26254L43.5783 14.4683C43.6918 14.8726 43.6509 15.3046 43.4634 15.6803C43.276 16.0561 42.9556 16.3487 42.5644 16.5012C42.1732 16.6537 41.7393 16.6553 41.347 16.5056C40.9547 16.356 40.6321 16.0657 40.4419 15.6914L36.7705 6.2356L30.334 20.9008C28.0105 26.1671 23.695 30.2981 18.3322 32.3893C12.9695 34.4805 6.99658 34.3614 1.72143 32.0582V32.0582Z" fill="#222222"/>
</svg>
